<?xml version="1.0" encoding="UTF-8"?>
<svg width="100mm" height="96.402mm" version="1.1" viewBox="0 0 100 96.402" xmlns="http://www.w3.org/2000/svg">
 <g transform="translate(-46.572 -105.19)">
  <g transform="matrix(.75508 0 0 .75508 11.406 30.847)">
   <g>
    <path d="m58.156 122.08c-22.31 25.482-9.4697 71.087 13.786 91.196 19.875 17.185 58.424 16.962 78.823 0.4025 23.684-19.227 39.463-63.325 18.354-89.659-21.109-26.334-88.654-27.422-110.96-1.9394z" fill="#f60"/>
    <ellipse cx="113.63" cy="123.13" rx="55.601" ry="24.674" fill="#f60" stroke-linecap="round" stroke-linejoin="bevel" stroke-width=".5"/>
    <ellipse cx="113.44" cy="122.92" rx="52.375" ry="21.563" fill="#db5800" stroke-linecap="round" stroke-linejoin="bevel" stroke-width=".5333"/>
    <path d="m128.41 107.56 1.485 37.971 9.0758 2.69z" fill="#ca5100"/>
    <path d="m129.89 145.54 10.934-24.017 17.197 5.6556-10.826 24.278z" fill="#f9f9f9"/>
   </g>
   <path d="m81.578 141.44 11.232-22.528 16.693 6.0456-17.153 29.421-17.729-9.5995z" fill="#f9f9f9"/>
   <g>
    <path d="m109.49 124.89 2.9071 7.3664-18.73 31.122-1.3297-9.0682" fill="#ffb380"/>
    <path d="m108.17 105.79 17.803-1.8543 1.3049 36.305-19.528 1.2797-1.2959-35.618z" fill="#f9f9f9"/>
    <path d="m157.88 127.1 3.8586 2.3944-12.939 28.66-1.6164-6.6884" fill="#ffb380"/>
    <path d="m125.97 103.91 2.4422 3.6502 1.485 37.971-2.6222-5.316" fill="#ffb380"/>
    <path d="m99.512 140.42 35.459-20.136 6.6686 12.281-34.908 19.933z" fill="#f9f9f9"/>
    <path d="m141.66 132.43 1.207 3.293-34.544 19.834-1.7225-2.8834" fill="#ffb380"/>
    <path d="m68.913 117.21 8.9303 38.129 12.142 2.2027z" fill="#ca5100"/>
    <path d="m71.857 114.87-2.9444 2.3345 10.485 24.371 2.377-1.3682" fill="#ffb380"/>
    <path d="m71.81 114.88 15.017-5.5843 9.8129 24.238-14.912 6.6837z" fill="#f9f9f9"/>
    <path d="m168.45 125.43c-14.793 16.864-38.733 18.064-59.857 18.193-21.923 0.13443-42.852-10.924-43.836-12.453l-0.3611 66.427s73.499 19.694 96.851 0.69962z" fill="#f60"/>
    <path transform="scale(.26458)" d="m639.45 469.11-0.72429 5.5926c-1.6112 1.5075-9.071 41.467-74.915 58.606 0 0 94.229 94.391-0.54497 279.32 7.2062-4.2401 30.188-26.544 37.74-35.82 16.879-20.732 29.663-38.814 45.356-68.067 9.1935-17.138 16.592-42.305 22.092-63.425 18.088-69.453 3.3664-142.01-29.003-176.21z" fill="#db5800"/>
    <path d="m107.99 132.54-4.4133 7.2061 3.1415 1.5402 4.5121-7.9279z" fill="#f9f9f9"/>
   </g>
  </g>
  <g transform="matrix(.85161 0 0 .85161 -15.69 6.7777)">
   <path d="m11.688 172.16a58.712 58.712 0 0 1-58.712 58.712 58.712 58.712 0 0 1-58.712-58.712 58.712 58.712 0 0 1 58.712-58.712 58.712 58.712 0 0 1 58.712 58.712z" fill="#72f"/>
   <ellipse cx="-47.021" cy="154.29" rx="48.278" ry="38.652" fill="#87decd"/>
   <ellipse transform="rotate(-21.609)" cx="-107.56" cy="111.65" rx="30.112" ry="22.807" fill="#afe9dd"/>
   <ellipse transform="rotate(-25.506)" cx="-116.7" cy="100" rx="25.545" ry="18.018" fill="#fff"/>
  </g>
 </g>
</svg>
