<?xml version="1.0" encoding="UTF-8" standalone="no"?>
<svg
   width="69.356102mm"
   height="8.3715334mm"
   viewBox="0 0 69.3561 8.3715333"
   version="1.1"
   id="svg8"
   inkscape:version="1.1.1 (eb90963e84, 2021-10-02)"
   sodipodi:docname="logo-light.svg"
   xmlns:inkscape="http://www.inkscape.org/namespaces/inkscape"
   xmlns:sodipodi="http://sodipodi.sourceforge.net/DTD/sodipodi-0.dtd"
   xmlns="http://www.w3.org/2000/svg"
   xmlns:svg="http://www.w3.org/2000/svg"
   xmlns:rdf="http://www.w3.org/1999/02/22-rdf-syntax-ns#"
   xmlns:cc="http://creativecommons.org/ns#"
   xmlns:dc="http://purl.org/dc/elements/1.1/">
  <defs
     id="defs2" />
  <sodipodi:namedview
     id="base"
     pagecolor="#000000"
     bordercolor="#666666"
     borderopacity="1.0"
     inkscape:pageopacity="0"
     inkscape:pageshadow="2"
     inkscape:zoom="2.8284271"
     inkscape:cx="114.5513"
     inkscape:cy="25.986174"
     inkscape:document-units="mm"
     inkscape:current-layer="text49699"
     inkscape:document-rotation="0"
     showgrid="false"
     inkscape:pagecheckerboard="false"
     inkscape:window-width="1611"
     inkscape:window-height="1082"
     inkscape:window-x="525"
     inkscape:window-y="210"
     inkscape:window-maximized="0"
     fit-margin-top="0"
     fit-margin-left="0"
     fit-margin-right="0"
     fit-margin-bottom="0"
     showguides="true"
     inkscape:guide-bbox="true">
    <sodipodi:guide
       position="-3.4161173,8.0080661"
       orientation="0,-1"
       id="guide1641" />
    <sodipodi:guide
       position="1.8007449,0.010642792"
       orientation="0,-1"
       id="guide1647" />
    <sodipodi:guide
       position="5.9868372,7.6699506"
       orientation="0,-1"
       id="guide935" />
  </sodipodi:namedview>
  <metadata
     id="metadata5">
    <rdf:RDF>
      <cc:Work
         rdf:about="">
        <dc:format>image/svg+xml</dc:format>
        <dc:type
           rdf:resource="http://purl.org/dc/dcmitype/StillImage" />
      </cc:Work>
    </rdf:RDF>
  </metadata>
  <g
     inkscape:label="Layer 1"
     inkscape:groupmode="layer"
     id="layer1"
     transform="translate(-55.532697,-78.038371)">
    <g
       id="g839"
       style="fill:#ffffff"
       transform="matrix(0.98328701,0,0,0.98328701,22.461471,-18.611458)">
      <g
         aria-label="Democrachat"
         id="text835"
         style="font-size:10.5833px;line-height:1.25;font-family:'Open Sans';-inkscape-font-specification:'Open Sans';letter-spacing:0px;fill:#ffffff;stroke-width:0.264583"
         transform="translate(0,0.41715356)" />
      <text
         xml:space="preserve"
         style="font-style:normal;font-weight:normal;font-size:10.7632px;line-height:1.25;font-family:sans-serif;fill:#000000;fill-opacity:1;stroke:none;stroke-width:0.26908"
         x="44.307724"
         y="91.582245"
         id="text3191"><tspan
           sodipodi:role="line"
           id="tspan3189"
           style="font-style:normal;font-variant:normal;font-weight:normal;font-stretch:normal;font-family:'Noto Sans CJK HK';-inkscape-font-specification:'Noto Sans CJK HK';fill:#ffffff;stroke-width:0.26908"
           x="44.307724"
           y="91.582245" /></text>
      <g
         aria-label="Democrachat"
         id="text49699"
         style="font-size:9.50721px;line-height:1.25;fill:#000000;stroke-width:0.237679"
         transform="matrix(1.0028444,0,0,1.1281583,-0.29535063,-13.665927)">
        <path
           id="path56806"
           style="font-weight:bold;fill:#ffffff;stroke-width:0.231001"
           d="m 33.841661,99.851763 v 6.736097 h 1.831555 c 1.010631,0 1.768849,-0.0721 2.274164,-0.21642 0.505317,-0.14738 0.938364,-0.39542 1.299305,-0.74432 0.315821,-0.30379 0.550496,-0.65427 0.703896,-1.05131 0.153399,-0.40004 0.230217,-0.85447 0.230217,-1.36279 0,-0.50231 -0.07682,-0.95173 -0.230217,-1.34875 -0.1534,-0.39704 -0.388075,-0.74752 -0.703896,-1.05131 -0.357932,-0.3489 -0.788338,-0.59542 -1.290646,-0.7398 -0.499299,-0.147384 -1.26016,-0.221397 -2.282823,-0.221397 z" />
        <path
           d="m 46.483472,104.04785 v 0.4602 h -3.776333 q 0.05865,0.56847 0.41057,0.85272 0.351916,0.28424 0.98356,0.28424 0.509829,0 1.042214,-0.14888 0.536898,-0.15341 1.100866,-0.46022 v 1.24526 q -0.572991,0.21655 -1.145984,0.32484 -0.572991,0.11279 -1.145983,0.11279 -1.371572,0 -2.134057,-0.69481 -0.757973,-0.69932 -0.757973,-1.95809 0,-1.23622 0.744438,-1.94456 0.74895,-0.70836 2.057357,-0.70836 1.191101,0 1.903958,0.71737 0.717367,0.71738 0.717367,1.9175 z m -1.660322,-0.5369 q 0,-0.46019 -0.270706,-0.73993 -0.266193,-0.28424 -0.699321,-0.28424 -0.469222,0 -0.762484,0.26619 -0.293265,0.26169 -0.365453,0.75798 z"
           style="font-weight:bold;fill:#ffffff;stroke-width:0.231"
           id="path56808" />
        <path
           d="m 52.38935,102.37399 q 0.306799,-0.46922 0.726391,-0.71286 0.424104,-0.24815 0.92942,-0.24815 0.870768,0 1.326454,0.5369 0.455687,0.5369 0.455687,1.56107 v 3.07701 h -1.624229 v -2.63485 q 0.0045,-0.0586 0.0045,-0.12182 0.0045,-0.0632 0.0045,-0.18048 0,-0.5369 -0.157911,-0.77602 -0.157911,-0.24364 -0.509827,-0.24364 -0.460197,0 -0.712856,0.379 -0.248147,0.37898 -0.25717,1.09635 v 2.48146 h -1.624228 v -2.63485 q 0,-0.8392 -0.144376,-1.07832 -0.144376,-0.24364 -0.51434,-0.24364 -0.46471,0 -0.717368,0.38351 -0.252658,0.37899 -0.252658,1.08733 v 2.48597 H 47.69711 v -5.05316 h 1.624229 v 0.73993 q 0.297775,-0.42862 0.681275,-0.64517 0.38801,-0.21658 0.85272,-0.21658 0.523363,0 0.924907,0.25267 0.401546,0.25265 0.609086,0.70834 z"
           style="font-weight:bold;fill:#ffffff;stroke-width:0.231"
           id="path56810" />
        <path
           d="m 59.738986,102.568 q -0.536898,0 -0.821138,0.388 -0.279729,0.38351 -0.279729,1.1099 0,0.7264 0.279729,1.11439 0.28424,0.38351 0.821138,0.38351 0.527874,0 0.807602,-0.38351 0.279729,-0.38799 0.279729,-1.11439 0,-0.72639 -0.279729,-1.1099 -0.279728,-0.388 -0.807602,-0.388 z m 0,-1.15502 q 1.303895,0 2.034799,0.70384 0.735414,0.70384 0.735414,1.94908 0,1.24524 -0.735414,1.94907 -0.730904,0.70383 -2.034799,0.70383 -1.308407,0 -2.048333,-0.70383 -0.735415,-0.70383 -0.735415,-1.94907 0,-1.24524 0.735415,-1.94908 0.739926,-0.70384 2.048333,-0.70384 z"
           style="font-weight:bold;fill:#ffffff;stroke-width:0.231"
           id="path56812" />
        <path
           d="m 67.765385,101.69272 v 1.31743 q -0.329358,-0.22559 -0.663227,-0.33387 -0.329357,-0.10828 -0.685786,-0.10828 -0.676761,0 -1.055748,0.39703 -0.374475,0.39252 -0.374475,1.10087 0,0.70834 0.374475,1.10538 0.378987,0.39252 1.055748,0.39252 0.378988,0 0.717368,-0.11279 0.342894,-0.1128 0.631645,-0.33388 v 1.32195 q -0.378987,0.13986 -0.77151,0.20754 -0.388009,0.0722 -0.780531,0.0722 -1.367059,0 -2.138568,-0.69931 -0.77151,-0.70384 -0.77151,-1.95359 0,-1.24976 0.77151,-1.94909 0.771509,-0.70383 2.138568,-0.70383 0.397034,0 0.780531,0.0722 0.388012,0.0676 0.77151,0.20753 z"
           style="font-weight:bold;fill:#ffffff;stroke-width:0.231"
           id="path56814" />
        <path
           d="m 72.913289,102.91089 q -0.212052,-0.0993 -0.424103,-0.14438 -0.207541,-0.0497 -0.419593,-0.0497 -0.622622,0 -0.961003,0.40154 -0.333868,0.39703 -0.333868,1.14148 v 2.32805 h -1.615207 v -5.05315 h 1.615207 v 0.83016 q 0.311309,-0.4963 0.712855,-0.72188 0.406057,-0.2301 0.970026,-0.2301 0.08121,0 0.175958,0.009 0.09476,0.005 0.275217,0.0271 z"
           style="font-weight:bold;fill:#ffffff;stroke-width:0.231"
           id="path56816" />
        <path
           d="m 75.981278,104.31404 q -0.505316,0 -0.762486,0.17145 -0.252658,0.17145 -0.252658,0.50531 0,0.3068 0.203029,0.48277 0.207541,0.17144 0.572992,0.17144 0.455687,0 0.766997,-0.32485 0.31131,-0.32936 0.31131,-0.82114 v -0.18498 z m 2.467926,-0.60908 v 2.883 h -1.628742 v -0.74895 q -0.324844,0.46021 -0.730903,0.67226 -0.406057,0.20753 -0.988073,0.20753 -0.785044,0 -1.276824,-0.45569 -0.487268,-0.46019 -0.487268,-1.19109 0,-0.88882 0.609085,-1.3039 0.613598,-0.41507 1.922005,-0.41507 h 0.951978 v -0.12634 q 0,-0.3835 -0.302286,-0.55946 -0.302287,-0.18047 -0.942957,-0.18047 -0.51885,0 -0.965513,0.10378 -0.446663,0.10377 -0.830161,0.3113 v -1.2317 q 0.51885,-0.12633 1.042213,-0.18949 0.523363,-0.0676 1.046726,-0.0676 1.367059,0 1.971633,0.54142 0.609087,0.5369 0.609087,1.75055 z"
           style="font-weight:bold;fill:#ffffff;stroke-width:0.231"
           id="path56818" />
        <path
           d="m 84.034745,101.69272 v 1.31743 q -0.329357,-0.22559 -0.663226,-0.33387 -0.329358,-0.10828 -0.685786,-0.10828 -0.676762,0 -1.055749,0.39703 -0.374475,0.39252 -0.374475,1.10087 0,0.70834 0.374475,1.10538 0.378987,0.39252 1.055749,0.39252 0.378987,0 0.717368,-0.11279 0.342893,-0.1128 0.631644,-0.33388 v 1.32195 q -0.378987,0.13986 -0.771508,0.20754 -0.388011,0.0722 -0.780533,0.0722 -1.367059,0 -2.138568,-0.69931 -0.77151,-0.70384 -0.77151,-1.95359 0,-1.24976 0.77151,-1.94909 0.771509,-0.70383 2.138568,-0.70383 0.397034,0 0.780533,0.0722 0.38801,0.0676 0.771508,0.20753 z"
           style="font-weight:bold;fill:#ffffff;stroke-width:0.231"
           id="path56820" />
        <path
           d="m 90.509106,103.51095 v 3.07701 h -1.624229 v -0.5008 -1.84531 q 0,-0.66322 -0.03159,-0.91137 -0.02706,-0.24814 -0.09926,-0.36545 -0.09476,-0.15791 -0.25717,-0.24364 -0.162423,-0.0902 -0.369964,-0.0902 -0.505314,0 -0.794067,0.39253 -0.288751,0.38801 -0.288751,1.07831 v 2.48598 h -1.615206 v -7.020287 h 1.615206 v 2.707047 q 0.365451,-0.44214 0.776019,-0.64969 0.41057,-0.21206 0.906862,-0.21206 0.875279,0 1.326454,0.5369 0.455687,0.5369 0.455687,1.56107 z"
           style="font-weight:bold;fill:#ffffff;stroke-width:0.231"
           id="path56822" />
        <path
           d="m 94.271901,104.31404 q -0.505316,0 -0.762485,0.17145 -0.252658,0.17145 -0.252658,0.50531 0,0.3068 0.203029,0.48277 0.20754,0.17144 0.572992,0.17144 0.455686,0 0.766996,-0.32485 0.311311,-0.32936 0.311311,-0.82114 v -0.18498 z m 2.467925,-0.60908 v 2.883 h -1.62874 v -0.74895 q -0.324846,0.46021 -0.730903,0.67226 -0.406057,0.20753 -0.988073,0.20753 -0.785044,0 -1.276825,-0.45569 -0.487267,-0.46019 -0.487267,-1.19109 0,-0.88882 0.609085,-1.3039 0.613597,-0.41507 1.922004,-0.41507 h 0.951979 v -0.12634 q 0,-0.3835 -0.302287,-0.55946 -0.302287,-0.18047 -0.942956,-0.18047 -0.51885,0 -0.965513,0.10378 -0.446663,0.10377 -0.830162,0.3113 v -1.2317 q 0.518851,-0.12633 1.042214,-0.18949 0.523362,-0.0676 1.046725,-0.0676 1.36706,0 1.971633,0.54142 0.609086,0.5369 0.609086,1.75055 z"
           style="font-weight:bold;fill:#ffffff;stroke-width:0.231"
           id="path56824" />
        <path
           d="m 100.00633,100.10007 v 1.43473 h 1.66485 v 1.15501 h -1.66485 v 2.14308 q 0,0.35193 0.13987,0.47825 0.13986,0.12182 0.55493,0.12182 h 0.83019 v 1.155 h -1.38512 q -0.95649,0 -1.358041,-0.39703 -0.39703,-0.40155 -0.39703,-1.35804 v -2.14308 h -0.803091 v -1.15501 h 0.803091 v -1.43473 z"
           style="font-weight:bold;fill:#ffffff;stroke-width:0.231"
           id="path56826" />
      </g>
    </g>
    <text
       xml:space="preserve"
       style="font-size:5.29167px;line-height:1.25;font-family:'Open Sans';-inkscape-font-specification:'Open Sans';letter-spacing:0px;fill:#ffffff;stroke-width:0.264583"
       x="35.850544"
       y="68.611"
       id="text887"><tspan
         sodipodi:role="line"
         id="tspan885"
         x="35.850544"
         y="68.611"
         style="fill:#ffffff;stroke-width:0.264583" /></text>
  </g>
</svg>
